<?xml version="1.0" encoding="UTF-8" standalone="no"?>
<svg width="287px" height="296px" viewBox="0 0 287 296" version="1.1" xmlns="http://www.w3.org/2000/svg" xmlns:xlink="http://www.w3.org/1999/xlink" xmlns:sketch="http://www.bohemiancoding.com/sketch/ns">
    <title>NY Hearts Boston</title>
    <description>Created with Sketch (http://www.bohemiancoding.com/sketch)</description>
    <defs></defs>
    <g id="Page 1" stroke="none" stroke-width="1" fill="none" fill-rule="evenodd">
        <path d="M199.64206,-19.5354692 C188.30206,-20.6795905 176.68206,-19.4314581 165.00606,-20.0295215 C161.14206,-20.2115408 156.97006,-19.0934223 153.022061,-19.7174885 C151.146061,-20.0035188 149.214061,-20.3155519 147.870061,-21.3036566 C144.706061,-23.5918992 144.034061,-29.7285498 146.358061,-33.3169303 C150.054061,-39.011534 159.40606,-35.4231536 166.57406,-36.9313135 C168.19806,-37.2693493 169.79406,-38.2574541 171.02606,-39.0635396 C171.86606,-39.6095975 172.95806,-40.1556553 173.71406,-40.9617408 C174.55406,-42.1318649 175.14206,-42.8079365 175.75806,-43.7440358 C177.85806,-47.0463859 179.73406,-50.6347664 182.05806,-53.6770889 C184.29806,-56.6154004 185.92206,-60.0997699 187.88206,-63.2201007 C191.66206,-69.2267375 195.55406,-75.1033606 199.05406,-81.370025 C200.95806,-84.8023889 203.50606,-87.9747252 205.43806,-91.4850974 C205.97006,-92.4471994 206.86606,-93.2792876 207.17406,-94.4754144 C207.48206,-95.6455385 207.25806,-97.0236846 207.17406,-98.2718169 C206.92206,-101.574167 207.20206,-105.292561 206.95006,-108.750928 C206.61406,-113.01538 207.25806,-117.045807 204.85006,-119.308047 C202.47006,-121.544284 197.68206,-121.648295 193.62206,-121.12824 C186.87406,-120.270149 180.82606,-125.158668 183.37406,-131.867379 C183.76606,-132.959495 184.21406,-134.337641 185.13806,-134.909701 C185.53006,-135.169729 185.72606,-135.585773 186.09006,-135.871803 C187.09806,-136.729894 188.80606,-137.613988 190.40206,-137.82201 C194.35006,-138.316063 200.09006,-137.587985 203.67406,-137.145938 C206.02606,-136.833905 208.23806,-137.197944 210.42206,-137.041927 C219.15806,-136.391858 228.53806,-137.015925 237.13406,-137.82201 C238.47806,-137.926021 241.72606,-137.717999 244.07806,-137.53598 C245.39406,-137.145938 246.90606,-136.417861 247.88606,-135.325745 C250.85406,-132.049398 251.91806,-125.912747 247.83006,-122.844422 C246.12206,-121.570287 243.57406,-120.686193 240.66206,-120.686193 C236.68606,-120.660191 230.16206,-122.428378 227.53006,-119.594078 C226.74606,-118.735987 225.99006,-117.149818 225.79406,-115.771672 C225.15006,-111.143182 225.76606,-106.566696 225.85006,-101.808192 C225.90606,-99.3119272 225.45806,-95.6195357 226.15806,-93.5653179 C226.60606,-92.2391773 227.64206,-91.1730643 228.28606,-90.028943 C228.59406,-89.4828851 232.43006,-83.6582676 233.77406,-81.2660139 C239.34606,-71.4369719 245.75806,-62.0499766 251.49806,-52.3509483 C253.99006,-48.1905072 256.70606,-42.1318649 260.542059,-39.4275782 C261.270059,-38.907523 262.838059,-38.2054486 263.762059,-38.0234293 C264.294059,-37.8934155 265.330059,-37.7894045 265.330059,-37.7894045 C272.190059,-35.9952143 280.842059,-39.6095975 285.154059,-34.2270268 C285.294059,-34.0450075 286.862059,-30.7686601 286.974059,-29.286503 C287.142059,-26.9722576 286.694059,-24.8140288 285.686059,-23.3838772 C284.538059,-21.7197007 282.410059,-20.3155519 279.946059,-20.0295215 C273.562059,-19.3014443 267.990059,-20.6275849 261.746059,-20.6535877 C255.78206,-20.6795905 248.61406,-20.6015822 242.11806,-20.7055932 C236.63006,-20.7836015 230.63806,-19.2494388 225.54206,-20.6015822 C223.38606,-21.1736428 221.48206,-23.3318717 220.81006,-25.4120922 C219.01806,-30.9506794 222.40606,-36.0992253 227.47406,-36.8012997 C228.81806,-36.983319 230.94606,-37.3993631 232.29006,-37.2173438 C233.38206,-37.0353245 235.09006,-36.6972887 236.46206,-36.9313135 C238.14206,-37.2173438 238.87006,-38.049432 238.03006,-39.765614 C237.83406,-40.1816581 237.63806,-40.7537188 237.33006,-41.0137463 C237.07806,-41.1957656 233.21406,-48.0084879 232.96206,-48.5805486 C231.81406,-51.206827 230.24606,-53.5470751 228.84606,-55.9393288 C225.48606,-61.6599353 222.12606,-67.3025335 218.85006,-72.9711345 C218.54206,-73.5171924 216.30206,-76.6115205 216.30206,-76.6115205 C216.30206,-76.6115205 215.93806,-76.4295012 215.29406,-75.2593771 C210.42206,-66.4704453 205.35406,-57.7855245 200.31406,-49.0485982 C198.91406,-46.5783363 195.33006,-40.831727 195.19006,-40.6497077 C194.57406,-39.765614 194.51806,-38.7515065 194.68606,-38.0754348 C194.74206,-37.7894045 195.38606,-37.1393356 195.41406,-37.1133328 C197.12206,-36.1772335 199.27806,-37.2433466 200.95806,-36.983319 C202.13406,-36.8012997 204.01006,-36.8533052 205.29806,-36.4892666 C208.96606,-35.4491564 212.27006,-31.9127814 211.34606,-26.9722576 C210.78606,-24.0079433 209.77806,-21.8497145 207.53806,-20.6015822 C205.69006,-19.6134774 202.21806,-19.2754416 199.64206,-19.5354692 Z M18.0620618,-18.6253727 C16.8860618,-18.7293837 15.5140619,-18.6773782 14.2540619,-19.0674195 C10.7260619,-20.1855381 6.80606194,-23.6699075 7.84206193,-28.8184534 C8.20606193,-30.5346353 9.24206192,-31.7307621 9.88606191,-33.0309 C13.1620619,-39.6095975 29.1780617,-32.4068338 31.1100617,-39.011534 C31.6140617,-40.7797215 31.2500617,-42.7039255 31.4740617,-44.7321406 C31.9500617,-48.9965927 31.5300617,-53.4690669 31.5300617,-57.7595217 C31.5300617,-57.7595217 31.4740617,-58.799632 31.5300617,-59.2936844 C31.6700617,-61.4259105 31.4180617,-63.5581365 31.5580617,-65.8203764 C31.9500617,-72.0350353 30.9420617,-78.1456831 31.4180617,-84.5943668 C31.6420617,-87.3766618 31.3900617,-90.1849596 31.3620617,-95.7755523 C31.3620617,-96.7116515 31.5580617,-100.118013 31.4740617,-101.184126 C31.1660617,-105.136545 31.8100617,-109.192975 31.3060617,-113.067386 C31.0540617,-114.731562 31.2500617,-115.953692 30.6900617,-117.149818 C29.3740617,-119.958116 24.7260618,-120.998226 20.4980618,-120.686193 C19.0420618,-120.55618 17.6420618,-119.984119 16.0180619,-120.166138 C13.5540619,-120.478171 11.2020619,-121.102237 9.71806192,-122.402375 C8.54206193,-123.416483 8.12206193,-124.664615 7.47806194,-126.250783 C6.24606195,-129.345111 7.61806194,-132.855484 9.07406192,-134.831693 C12.5460619,-139.512189 21.4220618,-136.235842 27.3580617,-136.911914 C28.6740617,-137.06793 30.0740617,-136.703892 31.4180617,-136.677889 C35.1700617,-136.651886 38.3340616,-136.625883 42.1420616,-136.599881 C46.1460616,-136.547875 49.7580615,-136.599881 53.4260615,-137.145938 C55.4700615,-137.431969 57.2900615,-137.171941 59.0820614,-137.509977 C60.2020614,-137.691996 61.7700614,-137.301955 62.8900614,-137.405966 C65.1300614,-137.613988 67.8180613,-137.327958 69.6100613,-136.547875 C73.0540613,-135.039715 75.4900613,-129.501128 73.0820613,-125.158668 C68.1820613,-116.291727 56.5340615,-124.196566 51.2420615,-118.319942 C51.1020615,-118.163926 51.0740615,-117.955904 50.9620615,-117.773885 C48.6660615,-113.795463 50.1780615,-106.436683 49.9820615,-101.080115 C49.5340615,-90.2889706 49.7580615,-80.9799836 49.9820615,-70.2928506 C50.0660615,-64.9102799 49.7580615,-58.2275714 50.0940615,-52.7669924 C50.2900615,-50.0107002 49.3100615,-46.2663032 50.1500615,-43.4320027 C51.3540615,-43.8480468 55.6660615,-55.6532984 56.6460615,-57.7075162 C58.4380614,-61.477916 59.8380614,-65.430335 61.5460614,-69.4087568 C63.2540614,-73.4391841 65.1020614,-77.3395977 66.6980614,-81.5520443 C67.2860614,-83.0602042 68.3220613,-84.6983779 68.9380613,-86.2585433 C71.6820613,-93.5653179 75.2100613,-100.482051 78.0380612,-107.658812 C81.2020612,-115.719667 84.6180612,-124.872637 88.7340611,-132.153409 C90.5260611,-135.351748 93.8300611,-138.238054 97.7220611,-139.304167 C102.930061,-140.760322 108.782061,-139.850225 112.030061,-137.327958 C114.298061,-135.55977 116.342061,-133.245525 117.126061,-130.073189 C117.294061,-129.397117 117.378061,-128.773051 117.630061,-128.122982 C118.974061,-124.560604 117.910061,-117.07181 118.078061,-112.781355 C118.274061,-107.502796 117.882061,-101.704181 118.302061,-96.1135881 C118.498061,-93.4613069 118.022061,-91.4330919 118.218061,-88.8848217 C118.442061,-85.8164964 118.638061,-81.7080608 118.442061,-78.691741 C118.134061,-74.5312999 118.750061,-70.5268754 118.442061,-66.392437 C118.274061,-64.3122165 118.498061,-56.3813756 118.442061,-55.2112516 C118.274061,-51.960907 118.778061,-49.178612 118.582061,-46.3703142 C118.470061,-44.9661654 118.162061,-42.4178952 118.666061,-40.9617408 C118.946061,-40.1816581 119.506061,-39.0895423 120.122061,-38.5694872 C124.322061,-34.9291012 134.374061,-38.7775092 139.022061,-35.4491564 C142.382061,-33.0048972 144.594061,-29.4165168 142.382061,-24.0599489 C141.402061,-21.7457035 138.882061,-19.769494 136.082061,-19.3014443 C131.210061,-18.4953589 126.254061,-19.3014443 121.466061,-19.7954967 C119.534061,-20.0035188 114.578061,-19.7434912 114.046061,-19.8475022 C112.814061,-20.0555243 110.966061,-20.2635463 109.902061,-20.1595353 C106.822061,-19.8475022 103.266061,-20.2895491 100.074061,-19.8995078 C98.4220611,-19.6914857 96.2380611,-19.2234361 94.5300611,-19.4834636 C94.5300611,-19.4834636 94.1100611,-19.3534499 93.9140611,-19.3014443 C92.3460611,-18.9634085 90.8900611,-19.2494388 89.1820611,-19.119425 C80.5020612,-18.4693561 73.6420613,-21.7197007 75.6300613,-30.7166546 C75.9100613,-31.9647869 76.9460613,-32.9528917 77.8420613,-33.6289634 C79.8020612,-35.059115 81.9580612,-36.1512308 85.1500612,-36.3852556 C90.2180611,-36.775297 96.2100611,-34.9030985 98.898061,-38.5694872 C99.598061,-39.5315892 100.074061,-41.0917546 100.214061,-42.4178952 C100.438061,-44.9141599 100.102061,-47.7484604 100.298061,-50.2187223 C100.326061,-50.4007416 100.634061,-62.440018 100.214061,-66.9124922 C99.962061,-69.4867651 100.158061,-73.0751455 100.298061,-75.6494185 C100.466061,-78.691741 100.130061,-82.0460967 100.158061,-85.218433 C100.186061,-88.6507969 100.382061,-92.1351663 100.130061,-95.697544 C99.822061,-99.5199493 99.626061,-102.692286 99.738061,-106.566696 C99.794061,-107.788826 99.878061,-111.871259 99.878061,-111.871259 C99.878061,-111.871259 93.7180611,-98.4538362 92.9060611,-96.2956074 C91.9540611,-93.77334 90.4700611,-91.1210588 89.4060611,-88.6247941 C87.3060612,-83.5542566 85.3460612,-78.58773 83.1060612,-73.5171924 C82.2660612,-71.6189912 80.8940612,-69.4347596 80.3060612,-67.4845528 C78.3740612,-61.1138774 75.0140613,-55.3412654 72.6340613,-49.3086258 C71.2060613,-45.6942426 69.5820613,-42.3138842 68.0700613,-38.9335258 C64.7940614,-31.6787566 62.8060614,-24.3199764 56.1420615,-20.4715684 C51.4380615,-17.7412789 38.0260616,-19.2234361 31.6420617,-19.015414 C27.8900617,-18.911403 23.8020618,-18.807392 19.8260618,-18.8333947 C19.2380618,-18.8593975 18.7900618,-18.5473644 18.0620618,-18.6253727 Z M18.0620618,-18.6253727" id="path2964" fill="#231F20" transform="translate(215.987533, -8.979926) scale(1, -1) translate(-215.987533, 8.979926) "></path>
        <path d="M38.3841921,148.075473 C44.236192,148.465514 49.528192,147.321393 54.8201919,144.305073 C55.5201919,143.915032 57.7601919,142.562888 58.3481919,142.042833 C59.0481919,141.392764 63.9201919,137.570359 64.8721918,136.322227 C65.3481918,135.724163 69.9961918,130.107568 69.9961918,130.107568 C69.9961918,130.107568 74.4201917,134.814067 75.2041917,135.620152 C76.5481917,136.946293 77.8081917,137.804384 78.7881917,138.532461 C81.6441917,140.69069 84.5561917,142.614894 87.8321916,144.487092 C90.1281916,145.813233 94.0761916,147.035363 96.1761915,147.321393 C96.7641915,147.399401 98.3321915,147.607423 99.0321915,147.711434 C107.012191,148.855555 117.344191,145.631214 123.196191,142.250855 C129.664191,138.532461 134.116191,133.045879 137.560191,126.181152 C138.316191,124.646989 140.052191,120.564556 140.388191,119.550449 C142.208191,114.115872 142.628191,107.251145 142.096191,100.464425 C141.284191,89.9073057 136.748191,79.0641561 131.904191,72.5114613 C130.924191,71.2113235 128.684191,67.414921 125.968191,64.1385736 C116.924191,53.3214268 103.540191,39.8519987 90.0721916,31.3230945 C86.2921916,28.9308408 71.8161918,21 71.8161918,21 C71.8161918,21 56.7241919,29.4248932 54.3161919,30.9070504 C39.0561921,40.3720539 22.2001923,53.7894764 12.7921924,68.9490837 C9.51619238,74.2276433 5.73619242,79.5582085 3.58019244,86.0068922 C2.57219245,88.9712064 1.67619246,91.5194766 0.976192466,94.8218267 C-0.675807517,102.596651 -0.171807522,111.749621 2.04019246,119.004391 C3.02019245,122.228732 4.47619243,125.687099 5.87619242,128.443391 C10.9441924,138.298436 20.3521923,144.773123 32.7281922,147.29539 C34.6881921,147.685431 36.5641921,147.971462 38.3841921,148.075473" id="path2960" fill="#EE2722" transform="translate(139.999999, 151.013784) scale(1, -1) translate(-139.999999, -151.013784) "></path>
        <g id="Group" transform="translate(165.000000, 139.000000)">
            <path d="M46,61.4149425 C46,61.4149425 49.0805939,66.9999978 58.1028477,67 C67.1251014,67.0000033 71.989695,60.5928985 71.9896952,54.802069 C71.9896952,49.0112396 67.5176596,45.7504025 67.5176596,45.7504025 C67.5176596,45.7504025 72.0102694,43.7145966 71.9999824,37.0002981 C71.9896952,30.2859996 65.3188813,25.0000014 59.5656823,25 C53.8124833,24.9999986 50.4006427,25.5102558 46,30.6955916 Z M1.31390622,28.483329 C-2.55110356,17.6093544 2.91306207,8.59189179 8.51554005,4.48581522 C14.1180181,0.379738772 25.4435264,-3.43118302 37.0028281,7.30773831 C46.8112908,-0.528269751 60.6470988,-1.93703912 71.6725828,2.47942973 C82.6980668,6.89589891 88.2272102,14.3643201 91.6386309,21.1184418 C95.050052,27.872563 95.3845501,38.5463582 108,45.1025962 C99.583849,49.8039929 98.6827308,64.1246421 95.8717796,69.5883471 C93.0608287,75.0520525 89.0393236,77.3492103 89.0393236,77.3492103 C89.0393236,77.3492103 95.5226534,81.9708686 97.5277617,89.9022697 C99.5328701,97.8336708 102.194856,106.429692 108,109.732337 C103.815741,112.067896 97.9439518,116.846525 95.8717766,122.585138 C93.7996016,128.323751 92.5522851,133.469132 87.9863157,139.826032 C82.1146462,148.000771 71.6725828,154.999994 58.7449964,155 C45.81741,155.000007 36.9723242,147.580632 36.9723242,147.580632 C36.9723242,147.580632 30.6185318,154.613843 21.5227318,154.613836 C16.3104832,154.613831 8.65524748,152.346762 3.9890554,145.940366 C0.51236069,141.167078 -1.46199503,133.473747 1.31077226,126.039751 C1.31077226,126.039751 4.0095294,133.224688 11.7842608,133.2247 C19.5589923,133.224713 23.6935231,126.718345 23.807181,119.468895 C23.807181,119.468895 23.8071801,110.02693 23.9208389,98.6302449 C24.0344976,87.23356 18.358058,81.429404 8.73596137,77.5629575 C20.9335476,72.268538 23.807181,65.7058291 23.8071805,56.6165601 C23.8071805,56.6165601 23.8071834,48.0639132 23.8071805,34.9583471 C23.8071777,21.852781 8.51554026,15.7831102 1.31390622,28.483329 Z M46,124.414942 C46,124.414942 49.0805939,129.999998 58.1028477,130 C67.1251014,130.000003 71.989695,123.592898 71.9896952,117.802069 C71.9896952,112.01124 67.5176596,108.750402 67.5176596,108.750402 C67.5176596,108.750402 72.0102694,106.714597 71.9999824,100.000298 C71.9896952,93.2859996 65.3188813,88.0000014 59.5656823,88 C53.8124833,87.9999986 50.4006427,88.5102558 46,93.6955916 Z M46,124.414942" id="Path 4" stroke="#000000" stroke-width="3" fill="#FFFFFF"></path>
            <path d="M20.8577612,5.01712122 C27.5915167,5.03424243 33.1414937,8.36974772 36.2903947,14.1387625 C42.7457978,7.55941307 51.1190638,5 58.6370779,5 C66.1550919,5 73.1143192,7.02447945 80.6454494,14.2765674 C88.1765796,21.5286552 89.1103197,29.5814734 90.9855033,33.7957982 C92.8606869,38.0101229 95.8242971,42.7620957 100,45.7178023 C96.5154939,49.0086254 94.6979796,56.8914841 92.732857,63.1008481 C90.7677347,69.3102123 86.4502531,74.546799 82.4046701,77.3914264 C85.3312222,79.4641376 87.2428392,81.6155648 90.1073503,85.9814748 C92.9718612,90.347385 95.2888278,103.575613 99.8351121,109.211416 C92.1892683,115.261261 91.1782889,121.045935 88.1162039,129.317362 C85.0541186,137.588788 74.4209309,150 59.201694,150 C43.9824571,150.000004 36.2477154,140.786698 36.2477154,140.786698 C35.2042581,143.061105 30.2619929,150 21.0751134,150 C11.8882339,150.000002 5.95664132,142.556029 5,136.500338 C8.87257566,138.360914 14.1733471,139.043674 19.7043786,136.015724 C25.2354102,132.987775 28.4205365,126.303819 28.4169972,119.688765 C28.4169972,119.688765 28.4205365,100.967342 28.4169972,95.7423884 C28.4205365,87.3004349 22.7308628,80.185943 18.7013105,77.5296489 C24.933532,72.9810428 28.6341413,65.0409743 28.4205365,58.9318319 C28.2069316,52.8226896 28.4205365,40.2532111 28.4205365,34.1768482 C28.4205365,27.8515713 23.993444,20.8457557 18.2636914,18.1741497 C14.0864354,16.2264249 9.15469776,16.3479733 5.04705135,18.5151125 C6.35074839,10.1664315 14.1240056,5 20.8577612,5.01712122 Z M57.2879199,72 C61.4749662,72 66.6620934,70.9228508 70.3103631,67.9084707 C72.0286743,66.6360869 76.7565743,61.8404534 76.7565743,55.4953291 C76.7565743,52.7836675 76.0157045,48.3020888 73.9708872,46.1681537 C74.797953,44.8871628 77,40.6780728 77,36.7330744 C77,29.8979742 70.3103631,20.2747979 58.0360592,20 C54.0068657,20 44.8611634,21.8385641 41,29.1147266 L41,63.137189 C42.8128152,65.9678808 48.5007096,72 57.2879199,72 Z M57.2879199,135 C61.4749662,135 66.6620934,133.922851 70.3103631,130.908471 C72.0286743,129.636087 76.7565743,124.840453 76.7565743,118.495329 C76.7565743,115.783667 76.0157045,111.302089 73.9708872,109.168154 C74.797953,107.887163 77,103.678073 77,99.7330744 C77,92.8979742 70.3103631,83.2747979 58.0360592,83 C54.0068657,83 44.8611634,84.8385641 41,92.1147266 L41,126.137189 C42.8128152,128.967881 48.5007096,135 57.2879199,135 Z M57.2879199,135" id="Path 1" fill="#000000"></path>
        </g>
    </g>
</svg>